<svg xmlns="http://www.w3.org/2000/svg" width="19" height="17" fill="none">
  <path fill="#000" d="M9.4438 17c-.3008 0-.6017-.1-.8022-.4-5.4154-6.1-6.719-7.5-7.02-7.9-.702-.9-1.103-2.1-1.103-3.3 0-3 2.4068-5.4 5.5156-5.4 1.3037 0 2.507.5 3.5099 1.3C10.5469.5 11.8506 0 13.054 0c3.0085 0 5.5156 2.4 5.5156 5.4 0 1.3-.5014 2.5-1.3036 3.4l-7.0199 7.9c-.2006.2-.4011.3-.8023.3Zm-6.017-9.5c.3008.4 3.51 4 6.1173 6.9l6.2176-7c.5014-.5.702-1.2.702-2 0-1.8-1.5043-3.3-3.3094-3.3-1.0028 0-2.0057.5-2.7076 1.3-.3009.3-.6017.4-.9026.4-.3009 0-.6017-.2-.8023-.4-.702-.8-1.7048-1.3-2.7076-1.3-1.8051 0-3.3094 1.5-3.3094 3.3-.1003.9.3009 1.6.702 2.1-.1003 0-.1003 0 0 0Z"/>
</svg>
